<?xml version="1.0" encoding="UTF-8" standalone="no"?>
<!DOCTYPE svg PUBLIC "-//W3C//DTD SVG 1.1//EN"
 "http://www.w3.org/Graphics/SVG/1.1/DTD/svg11.dtd">
<!-- Generated by graphviz version 12.1.1 (0)
 -->
<!-- Title: G Pages: 1 -->
<svg width="1931pt" height="1513pt"
 viewBox="0.00 0.00 1931.29 1513.43" xmlns="http://www.w3.org/2000/svg" xmlns:xlink="http://www.w3.org/1999/xlink">
<g id="graph0" class="graph" transform="scale(1 1) rotate(0) translate(4 1509.43)">
<title>G</title>
<polygon fill="white" stroke="none" points="-4,4 -4,-1509.43 1927.29,-1509.43 1927.29,4 -4,4"/>
<!-- 7Apprentis -->
<g id="node1" class="node">
<title>7Apprentis</title>
<polygon fill="#ffffff" stroke="black" points="621.94,-726.3 527.19,-726.3 527.19,-690.3 621.94,-690.3 621.94,-726.3"/>
<text text-anchor="middle" x="574.56" y="-703.62" font-family="Times,serif" font-size="14.00" fill="#000000">7Apprentis</text>
</g>
<!-- ASTRE -->
<g id="node12" class="node">
<title>ASTRE</title>
<polygon fill="#ffffff" stroke="black" points="419.48,-743.05 353.98,-743.05 353.98,-707.05 419.48,-707.05 419.48,-743.05"/>
<text text-anchor="middle" x="386.73" y="-720.37" font-family="Times,serif" font-size="14.00" fill="#000000">ASTRE</text>
</g>
<!-- 7Apprentis&#45;&#45;ASTRE -->
<g id="edge2" class="edge">
<title>7Apprentis&#45;&#45;ASTRE</title>
<path fill="none" stroke="black" d="M527.17,-712.53C493.69,-715.51 449.67,-719.44 419.91,-722.09"/>
<text text-anchor="middle" x="488.54" y="-704.01" font-family="Times,serif" font-size="14.00">ernoulta</text>
</g>
<!-- N7 et Mat -->
<g id="node41" class="node">
<title>N7 et Mat</title>
<polygon fill="#ffffff" stroke="black" points="804.31,-669.93 715.56,-669.93 715.56,-633.93 804.31,-633.93 804.31,-669.93"/>
<text text-anchor="middle" x="759.94" y="-647.26" font-family="Times,serif" font-size="14.00" fill="#000000">N7 et Mat</text>
</g>
<!-- 7Apprentis&#45;&#45;N7 et Mat -->
<g id="edge1" class="edge">
<title>7Apprentis&#45;&#45;N7 et Mat</title>
<path fill="none" stroke="black" d="M622.3,-693.78C650.94,-685.07 687.14,-674.07 715.23,-665.53"/>
<text text-anchor="middle" x="644.39" y="-666.36" font-family="Times,serif" font-size="14.00">lebarsl</text>
</g>
<!-- 7Emilion -->
<g id="node2" class="node">
<title>7Emilion</title>
<polygon fill="#ffffff" stroke="black" points="1128.01,-608.68 1048.26,-608.68 1048.26,-572.68 1128.01,-572.68 1128.01,-608.68"/>
<text text-anchor="middle" x="1088.13" y="-586.01" font-family="Times,serif" font-size="14.00" fill="#000000">7Emilion</text>
</g>
<!-- 7dePique -->
<g id="node6" class="node">
<title>7dePique</title>
<polygon fill="#ffffff" stroke="black" points="919.74,-769.96 836.99,-769.96 836.99,-733.96 919.74,-733.96 919.74,-769.96"/>
<text text-anchor="middle" x="878.36" y="-747.28" font-family="Times,serif" font-size="14.00" fill="#000000">7dePique</text>
</g>
<!-- 7Emilion&#45;&#45;7dePique -->
<g id="edge3" class="edge">
<title>7Emilion&#45;&#45;7dePique</title>
<path fill="none" stroke="black" d="M1064.48,-608.87C1024.19,-639.84 942.7,-702.49 902.25,-733.59"/>
<text text-anchor="middle" x="960.87" y="-675.18" font-family="Times,serif" font-size="14.00">houotl</text>
</g>
<!-- 7fe Space -->
<g id="node8" class="node">
<title>7fe Space</title>
<polygon fill="#03224c" stroke="black" points="1171.03,-488.12 1085.28,-488.12 1085.28,-452.12 1171.03,-452.12 1171.03,-488.12"/>
<text text-anchor="middle" x="1128.16" y="-465.44" font-family="Times,serif" font-size="14.00" fill="#ffffff">7fe Space</text>
</g>
<!-- 7Emilion&#45;&#45;7fe Space -->
<g id="edge7" class="edge">
<title>7Emilion&#45;&#45;7fe Space</title>
<path fill="none" stroke="black" d="M1094.21,-572.37C1101.74,-549.71 1114.47,-511.34 1122.02,-488.6"/>
<text text-anchor="middle" x="1074.37" y="-517.18" font-family="Times,serif" font-size="14.00">labarthec</text>
</g>
<!-- Brew 7 -->
<g id="node17" class="node">
<title>Brew 7</title>
<polygon fill="#ffffff" stroke="black" points="936.76,-528.91 869.76,-528.91 869.76,-492.91 936.76,-492.91 936.76,-528.91"/>
<text text-anchor="middle" x="903.26" y="-506.23" font-family="Times,serif" font-size="14.00" fill="#000000">Brew 7</text>
</g>
<!-- 7Emilion&#45;&#45;Brew 7 -->
<g id="edge10" class="edge">
<title>7Emilion&#45;&#45;Brew 7</title>
<path fill="none" stroke="black" d="M1048.02,-573.37C1014.89,-559.07 968.38,-539.01 937.1,-525.51"/>
<text text-anchor="middle" x="944.94" y="-553.39" font-family="Times,serif" font-size="14.00">bongiovannia</text>
</g>
<!-- Bureau Des Éleves -->
<g id="node20" class="node">
<title>Bureau Des Éleves</title>
<polygon fill="#ffffff" stroke="black" points="1173.66,-699.77 1022.66,-699.77 1022.66,-663.77 1173.66,-663.77 1173.66,-699.77"/>
<text text-anchor="middle" x="1098.16" y="-677.09" font-family="Times,serif" font-size="14.00" fill="#000000">Bureau Des Éleves</text>
</g>
<!-- 7Emilion&#45;&#45;Bureau Des Éleves -->
<g id="edge6" class="edge">
<title>7Emilion&#45;&#45;Bureau Des Éleves</title>
<path fill="none" stroke="black" d="M1090.16,-609.11C1091.9,-624.92 1094.4,-647.57 1096.13,-663.36"/>
<text text-anchor="middle" x="1059.4" y="-640.19" font-family="Times,serif" font-size="14.00">labarthec</text>
</g>
<!-- Club&#39;Zik -->
<g id="node25" class="node">
<title>Club&#39;Zik</title>
<polygon fill="#ffffff" stroke="black" points="1065.2,-508.86 989.95,-508.86 989.95,-472.86 1065.2,-472.86 1065.2,-508.86"/>
<text text-anchor="middle" x="1027.57" y="-486.18" font-family="Times,serif" font-size="14.00" fill="#000000">Club&#39;Zik</text>
</g>
<!-- 7Emilion&#45;&#45;Club&#39;Zik -->
<g id="edge8" class="edge">
<title>7Emilion&#45;&#45;Club&#39;Zik</title>
<path fill="none" stroke="black" d="M1077.03,-572.37C1066.1,-554.36 1049.51,-527.02 1038.61,-509.05"/>
<text text-anchor="middle" x="1105.44" y="-544.66" font-family="Times,serif" font-size="14.00">bongiovannia</text>
</g>
<!-- Escape7 -->
<g id="node27" class="node">
<title>Escape7</title>
<polygon fill="#ffffff" stroke="black" points="907.25,-667.41 831.25,-667.41 831.25,-631.41 907.25,-631.41 907.25,-667.41"/>
<text text-anchor="middle" x="869.25" y="-644.73" font-family="Times,serif" font-size="14.00" fill="#000000">Escape7</text>
</g>
<!-- 7Emilion&#45;&#45;Escape7 -->
<g id="edge4" class="edge">
<title>7Emilion&#45;&#45;Escape7</title>
<path fill="none" stroke="black" d="M1047.99,-601.45C1008,-612.18 947.05,-628.53 907.68,-639.1"/>
<text text-anchor="middle" x="955.33" y="-606.97" font-family="Times,serif" font-size="14.00">houotl</text>
</g>
<!-- Mind7 -->
<g id="node39" class="node">
<title>Mind7</title>
<polygon fill="#aaaaaa" stroke="black" points="1068.25,-379.64 1006.5,-379.64 1006.5,-343.64 1068.25,-343.64 1068.25,-379.64"/>
<text text-anchor="middle" x="1037.37" y="-356.97" font-family="Times,serif" font-size="14.00" fill="#ffffff">Mind7</text>
</g>
<!-- 7Emilion&#45;&#45;Mind7 -->
<g id="edge9" class="edge">
<title>7Emilion&#45;&#45;Mind7</title>
<path fill="none" stroke="black" d="M1084.07,-572.32C1074.56,-529.44 1050.98,-423.06 1041.46,-380.09"/>
<text text-anchor="middle" x="1015.14" y="-462.9" font-family="Times,serif" font-size="14.00">bongiovannia</text>
</g>
<!-- TVn7 -->
<g id="node47" class="node">
<title>TVn7</title>
<polygon fill="#ffffff" stroke="black" points="1326.25,-705.7 1272.25,-705.7 1272.25,-669.7 1326.25,-669.7 1326.25,-705.7"/>
<text text-anchor="middle" x="1299.25" y="-683.02" font-family="Times,serif" font-size="14.00" fill="#000000">TVn7</text>
</g>
<!-- 7Emilion&#45;&#45;TVn7 -->
<g id="edge5" class="edge">
<title>7Emilion&#45;&#45;TVn7</title>
<path fill="none" stroke="black" d="M1128.34,-609.16C1170.45,-628.51 1235.44,-658.38 1271.95,-675.15"/>
<text text-anchor="middle" x="1172.02" y="-646.1" font-family="Times,serif" font-size="14.00">legalla1</text>
</g>
<!-- 7Randos -->
<g id="node3" class="node">
<title>7Randos</title>
<polygon fill="#ffffff" stroke="black" points="1413.95,-223.52 1336.45,-223.52 1336.45,-187.52 1413.95,-187.52 1413.95,-223.52"/>
<text text-anchor="middle" x="1375.2" y="-200.85" font-family="Times,serif" font-size="14.00" fill="#000000">7Randos</text>
</g>
<!-- 7ème Art -->
<g id="node10" class="node">
<title>7ème Art</title>
<polygon fill="#ffffff" stroke="black" points="1199.22,-214.35 1117.22,-214.35 1117.22,-178.35 1199.22,-178.35 1199.22,-214.35"/>
<text text-anchor="middle" x="1158.22" y="-191.67" font-family="Times,serif" font-size="14.00" fill="#000000">7ème Art</text>
</g>
<!-- 7Randos&#45;&#45;7ème Art -->
<g id="edge14" class="edge">
<title>7Randos&#45;&#45;7ème Art</title>
<path fill="none" stroke="black" d="M1336.16,-203.87C1297.6,-202.24 1238.86,-199.76 1199.54,-198.09"/>
<text text-anchor="middle" x="1233.72" y="-204.93" font-family="Times,serif" font-size="14.00">beneficea</text>
</g>
<!-- Acte7 -->
<g id="node13" class="node">
<title>Acte7</title>
<polygon fill="#ffffff" stroke="black" points="1583.23,-386.99 1526.73,-386.99 1526.73,-350.99 1583.23,-350.99 1583.23,-386.99"/>
<text text-anchor="middle" x="1554.98" y="-364.31" font-family="Times,serif" font-size="14.00" fill="#000000">Acte7</text>
</g>
<!-- 7Randos&#45;&#45;Acte7 -->
<g id="edge15" class="edge">
<title>7Randos&#45;&#45;Acte7</title>
<path fill="none" stroke="black" d="M1395.47,-223.96C1430.09,-255.43 1500.21,-319.19 1534.78,-350.62"/>
<text text-anchor="middle" x="1443" y="-291.24" font-family="Times,serif" font-size="14.00">arzule</text>
</g>
<!-- Bureau Des Sports -->
<g id="node19" class="node">
<title>Bureau Des Sports</title>
<polygon fill="#ffffff" stroke="black" points="1614.26,-171.43 1463.26,-171.43 1463.26,-135.43 1614.26,-135.43 1614.26,-171.43"/>
<text text-anchor="middle" x="1538.76" y="-148.75" font-family="Times,serif" font-size="14.00" fill="#000000">Bureau Des Sports</text>
</g>
<!-- 7Randos&#45;&#45;Bureau Des Sports -->
<g id="edge12" class="edge">
<title>7Randos&#45;&#45;Bureau Des Sports</title>
<path fill="none" stroke="black" d="M1414.38,-193.04C1434.22,-186.72 1458.71,-178.92 1480.7,-171.92"/>
<text text-anchor="middle" x="1424.66" y="-169.18" font-family="Times,serif" font-size="14.00">fagotn</text>
</g>
<!-- Pompom -->
<g id="node44" class="node">
<title>Pompom</title>
<polygon fill="#ffffff" stroke="black" points="1286.26,-303.17 1208.76,-303.17 1208.76,-267.17 1286.26,-267.17 1286.26,-303.17"/>
<text text-anchor="middle" x="1247.51" y="-280.5" font-family="Times,serif" font-size="14.00" fill="#000000">Pompom</text>
</g>
<!-- 7Randos&#45;&#45;Pompom -->
<g id="edge13" class="edge">
<title>7Randos&#45;&#45;Pompom</title>
<path fill="none" stroke="black" d="M1345.59,-224C1324.96,-236.86 1297.56,-253.95 1276.97,-266.8"/>
<text text-anchor="middle" x="1284.65" y="-249.35" font-family="Times,serif" font-size="14.00">choisyv</text>
</g>
<!-- Slack7 -->
<g id="node46" class="node">
<title>Slack7</title>
<polygon fill="#ffffff" stroke="black" points="1471.77,-345.76 1408.52,-345.76 1408.52,-309.76 1471.77,-309.76 1471.77,-345.76"/>
<text text-anchor="middle" x="1440.14" y="-323.09" font-family="Times,serif" font-size="14.00" fill="#000000">Slack7</text>
</g>
<!-- 7Randos&#45;&#45;Slack7 -->
<g id="edge11" class="edge">
<title>7Randos&#45;&#45;Slack7</title>
<path fill="none" stroke="black" d="M1384.92,-223.82C1397.17,-246.87 1418.08,-286.23 1430.35,-309.34"/>
<text text-anchor="middle" x="1354.76" y="-270.53" font-family="Times,serif" font-size="14.00">choisyv, fagotn</text>
</g>
<!-- 7Recette -->
<g id="node4" class="node">
<title>7Recette</title>
<polygon fill="#ffffff" stroke="black" points="829.75,-1289.24 750,-1289.24 750,-1253.24 829.75,-1253.24 829.75,-1289.24"/>
<text text-anchor="middle" x="789.88" y="-1266.56" font-family="Times,serif" font-size="14.00" fill="#000000">7Recette</text>
</g>
<!-- 7Voix -->
<g id="node5" class="node">
<title>7Voix</title>
<polygon fill="#ffffff" stroke="black" points="1141.76,-1291.37 1086.76,-1291.37 1086.76,-1255.37 1141.76,-1255.37 1141.76,-1291.37"/>
<text text-anchor="middle" x="1114.26" y="-1268.69" font-family="Times,serif" font-size="14.00" fill="#000000">7Voix</text>
</g>
<!-- 7Recette&#45;&#45;7Voix -->
<g id="edge17" class="edge">
<title>7Recette&#45;&#45;7Voix</title>
<path fill="none" stroke="black" d="M829.98,-1271.5C896.76,-1271.94 1029.11,-1272.81 1086.57,-1273.19"/>
<text text-anchor="middle" x="933.15" y="-1276.29" font-family="Times,serif" font-size="14.00">gourioj</text>
</g>
<!-- B7H -->
<g id="node14" class="node">
<title>B7H</title>
<polygon fill="#ffffff" stroke="black" points="981.27,-1011 927.27,-1011 927.27,-975 981.27,-975 981.27,-1011"/>
<text text-anchor="middle" x="954.27" y="-988.33" font-family="Times,serif" font-size="14.00" fill="#000000">B7H</text>
</g>
<!-- 7Recette&#45;&#45;B7H -->
<g id="edge16" class="edge">
<title>7Recette&#45;&#45;B7H</title>
<path fill="none" stroke="black" d="M800.66,-1252.98C830.45,-1202.57 913.61,-1061.82 943.44,-1011.32"/>
<text text-anchor="middle" x="785.05" y="-1136.1" font-family="Times,serif" font-size="14.00">gourioj, djafery, fieveta2</text>
</g>
<!-- 7Voix&#45;&#45;B7H -->
<g id="edge18" class="edge">
<title>7Voix&#45;&#45;B7H</title>
<path fill="none" stroke="black" d="M1103.77,-1254.97C1074.78,-1204.17 993.84,-1062.35 964.8,-1011.46"/>
<text text-anchor="middle" x="1009.16" y="-1137.17" font-family="Times,serif" font-size="14.00">gourioj</text>
</g>
<!-- 7dePique&#45;&#45;Escape7 -->
<g id="edge19" class="edge">
<title>7dePique&#45;&#45;Escape7</title>
<path fill="none" stroke="black" d="M876.73,-733.62C875.08,-714.96 872.52,-686.19 870.87,-667.58"/>
<text text-anchor="middle" x="813.8" y="-687.3" font-family="Times,serif" font-size="14.00">martinn1, houotl</text>
</g>
<!-- 7dePique&#45;&#45;N7 et Mat -->
<g id="edge20" class="edge">
<title>7dePique&#45;&#45;N7 et Mat</title>
<path fill="none" stroke="black" d="M856.64,-733.61C835.27,-715.56 802.84,-688.17 781.52,-670.16"/>
<text text-anchor="middle" x="786.08" y="-705.84" font-family="Times,serif" font-size="14.00">martinn1</text>
</g>
<!-- 7fault -->
<g id="node7" class="node">
<title>7fault</title>
<polygon fill="#ffffff" stroke="black" points="1542.44,-1049.82 1484.44,-1049.82 1484.44,-1013.82 1542.44,-1013.82 1542.44,-1049.82"/>
<text text-anchor="middle" x="1513.44" y="-1027.15" font-family="Times,serif" font-size="14.00" fill="#000000">7fault</text>
</g>
<!-- AC7PT -->
<g id="node11" class="node">
<title>AC7PT</title>
<polygon fill="#ffffff" stroke="black" points="1745.77,-1061.39 1681.77,-1061.39 1681.77,-1025.39 1745.77,-1025.39 1745.77,-1061.39"/>
<text text-anchor="middle" x="1713.77" y="-1038.71" font-family="Times,serif" font-size="14.00" fill="#000000">AC7PT</text>
</g>
<!-- 7fault&#45;&#45;AC7PT -->
<g id="edge21" class="edge">
<title>7fault&#45;&#45;AC7PT</title>
<path fill="none" stroke="black" d="M1542.57,-1033.51C1579.46,-1035.64 1642.85,-1039.29 1681.28,-1041.51"/>
<text text-anchor="middle" x="1611.92" y="-1024.21" font-family="Times,serif" font-size="14.00">bontinckl, falloty</text>
</g>
<!-- Cartel -->
<g id="node23" class="node">
<title>Cartel</title>
<polygon fill="#ffffff" stroke="black" points="1416.01,-1140.06 1355.76,-1140.06 1355.76,-1104.06 1416.01,-1104.06 1416.01,-1140.06"/>
<text text-anchor="middle" x="1385.89" y="-1117.38" font-family="Times,serif" font-size="14.00" fill="#000000">Cartel</text>
</g>
<!-- 7fault&#45;&#45;Cartel -->
<g id="edge24" class="edge">
<title>7fault&#45;&#45;Cartel</title>
<path fill="none" stroke="black" d="M1487.32,-1050.3C1465.31,-1065.87 1433.97,-1088.04 1411.97,-1103.61"/>
<text text-anchor="middle" x="1381.4" y="-1080.9" font-family="Times,serif" font-size="14.00">rottiern, gutierrezt</text>
</g>
<!-- Fromage7 -->
<g id="node29" class="node">
<title>Fromage7</title>
<polygon fill="#ffffff" stroke="black" points="1364.67,-923.73 1275.92,-923.73 1275.92,-887.73 1364.67,-887.73 1364.67,-923.73"/>
<text text-anchor="middle" x="1320.29" y="-901.05" font-family="Times,serif" font-size="14.00" fill="#000000">Fromage7</text>
</g>
<!-- 7fault&#45;&#45;Fromage7 -->
<g id="edge25" class="edge">
<title>7fault&#45;&#45;Fromage7</title>
<path fill="none" stroke="black" d="M1485.35,-1013.49C1448.73,-989.58 1385.05,-948 1348.41,-924.08"/>
<text text-anchor="middle" x="1380.88" y="-972.74" font-family="Times,serif" font-size="14.00">gutierrezt</text>
</g>
<!-- Les !mprobables -->
<g id="node36" class="node">
<title>Les !mprobables</title>
<polygon fill="#ffffff" stroke="black" points="1716.39,-1185.97 1581.14,-1185.97 1581.14,-1149.97 1716.39,-1149.97 1716.39,-1185.97"/>
<text text-anchor="middle" x="1648.76" y="-1163.29" font-family="Times,serif" font-size="14.00" fill="#000000">Les !mprobables</text>
</g>
<!-- 7fault&#45;&#45;Les !mprobables -->
<g id="edge22" class="edge">
<title>7fault&#45;&#45;Les !mprobables</title>
<path fill="none" stroke="black" d="M1531.69,-1050.19C1557.66,-1076.31 1604.99,-1123.93 1630.8,-1149.9"/>
<text text-anchor="middle" x="1548.24" y="-1103.99" font-family="Times,serif" font-size="14.00">bontinckl</text>
</g>
<!-- Magic7 -->
<g id="node38" class="node">
<title>Magic7</title>
<polygon fill="#ffffff" stroke="black" points="1423.89,-1045.16 1355.39,-1045.16 1355.39,-1009.16 1423.89,-1009.16 1423.89,-1045.16"/>
<text text-anchor="middle" x="1389.64" y="-1022.48" font-family="Times,serif" font-size="14.00" fill="#000000">Magic7</text>
</g>
<!-- 7fault&#45;&#45;Magic7 -->
<g id="edge23" class="edge">
<title>7fault&#45;&#45;Magic7</title>
<path fill="none" stroke="black" d="M1484.1,-1030.72C1466.08,-1030.04 1442.91,-1029.17 1424.03,-1028.45"/>
<text text-anchor="middle" x="1385.82" y="-1033.54" font-family="Times,serif" font-size="14.00">rottiern, gutierrezt</text>
</g>
<!-- 7fe Space&#45;&#45;Bureau Des Éleves -->
<g id="edge28" class="edge">
<title>7fe Space&#45;&#45;Bureau Des Éleves</title>
<path fill="none" stroke="black" d="M1125.55,-488.53C1119.86,-528.66 1106.4,-623.6 1100.74,-663.55"/>
<text text-anchor="middle" x="1174.64" y="-562.74" font-family="Times,serif" font-size="14.00">nouett, labarthec</text>
</g>
<!-- Foyer -->
<g id="node28" class="node">
<title>Foyer</title>
<polygon fill="#ffffff" stroke="black" points="959.76,-444.46 903.26,-444.46 903.26,-408.46 959.76,-408.46 959.76,-444.46"/>
<text text-anchor="middle" x="931.51" y="-421.79" font-family="Times,serif" font-size="14.00" fill="#000000">Foyer</text>
</g>
<!-- 7fe Space&#45;&#45;Foyer -->
<g id="edge27" class="edge">
<title>7fe Space&#45;&#45;Foyer</title>
<path fill="none" stroke="black" d="M1085,-460.53C1047.01,-452.1 992.78,-440.06 959.99,-432.78"/>
<text text-anchor="middle" x="998.87" y="-433.36" font-family="Times,serif" font-size="14.00">valletc</text>
</g>
<!-- 7fe Space&#45;&#45;Pompom -->
<g id="edge29" class="edge">
<title>7fe Space&#45;&#45;Pompom</title>
<path fill="none" stroke="black" d="M1140.04,-451.71C1162.92,-416.26 1212.84,-338.9 1235.68,-303.51"/>
<text text-anchor="middle" x="1132.36" y="-381.56" font-family="Times,serif" font-size="14.00">pintodasnevesa</text>
</g>
<!-- Terroir7 -->
<g id="node48" class="node">
<title>Terroir7</title>
<polygon fill="#ffffff" stroke="black" points="1002.54,-658.41 928.04,-658.41 928.04,-622.41 1002.54,-622.41 1002.54,-658.41"/>
<text text-anchor="middle" x="965.29" y="-635.74" font-family="Times,serif" font-size="14.00" fill="#000000">Terroir7</text>
</g>
<!-- 7fe Space&#45;&#45;Terroir7 -->
<g id="edge26" class="edge">
<title>7fe Space&#45;&#45;Terroir7</title>
<path fill="none" stroke="black" d="M1110.73,-488.34C1079.46,-521.03 1014.19,-589.28 982.84,-622.06"/>
<text text-anchor="middle" x="1023.16" y="-559.15" font-family="Times,serif" font-size="14.00">valletc</text>
</g>
<!-- 7robot -->
<g id="node9" class="node">
<title>7robot</title>
<polygon fill="#ffffff" stroke="black" points="363.25,-1424.81 300,-1424.81 300,-1388.81 363.25,-1388.81 363.25,-1424.81"/>
<text text-anchor="middle" x="331.63" y="-1402.13" font-family="Times,serif" font-size="14.00" fill="#000000">7robot</text>
</g>
<!-- Break7 -->
<g id="node16" class="node">
<title>Break7</title>
<polygon fill="#ffffff" stroke="black" points="624.86,-1386 557.86,-1386 557.86,-1350 624.86,-1350 624.86,-1386"/>
<text text-anchor="middle" x="591.36" y="-1363.33" font-family="Times,serif" font-size="14.00" fill="#000000">Break7</text>
</g>
<!-- 7robot&#45;&#45;Break7 -->
<g id="edge30" class="edge">
<title>7robot&#45;&#45;Break7</title>
<path fill="none" stroke="black" d="M363.73,-1402.01C413.14,-1394.63 507.35,-1380.55 557.68,-1373.03"/>
<text text-anchor="middle" x="430.71" y="-1391.47" font-family="Times,serif" font-size="14.00">antoiner</text>
</g>
<!-- Genius7 -->
<g id="node31" class="node">
<title>Genius7</title>
<polygon fill="#d47cff" stroke="black" points="1034.1,-188.99 959.6,-188.99 959.6,-152.99 1034.1,-152.99 1034.1,-188.99"/>
<text text-anchor="middle" x="996.85" y="-166.32" font-family="Times,serif" font-size="14.00" fill="#ffffff">Genius7</text>
</g>
<!-- 7ème Art&#45;&#45;Genius7 -->
<g id="edge31" class="edge">
<title>7ème Art&#45;&#45;Genius7</title>
<path fill="none" stroke="black" d="M1117.09,-189.88C1091.69,-185.89 1059.34,-180.81 1034.6,-176.92"/>
<text text-anchor="middle" x="1096.84" y="-187.35" font-family="Times,serif" font-size="14.00">yeoue</text>
</g>
<!-- 7ème Art&#45;&#45;Mind7 -->
<g id="edge32" class="edge">
<title>7ème Art&#45;&#45;Mind7</title>
<path fill="none" stroke="black" d="M1144.83,-214.67C1121.6,-246.44 1074.1,-311.41 1050.83,-343.24"/>
<text text-anchor="middle" x="1076.83" y="-282.9" font-family="Times,serif" font-size="14.00">yeoue</text>
</g>
<!-- AC7PT&#45;&#45;Les !mprobables -->
<g id="edge33" class="edge">
<title>AC7PT&#45;&#45;Les !mprobables</title>
<path fill="none" stroke="black" d="M1704.17,-1061.77C1691.88,-1085.32 1670.7,-1125.92 1658.39,-1149.51"/>
<text text-anchor="middle" x="1752.16" y="-1109.59" font-family="Times,serif" font-size="14.00">bontinckl, davesnea</text>
</g>
<!-- Boutique ENSEEIHT -->
<g id="node15" class="node">
<title>Boutique ENSEEIHT</title>
<polygon fill="#ffffff" stroke="black" points="289.79,-689.79 125.29,-689.79 125.29,-653.79 289.79,-653.79 289.79,-689.79"/>
<text text-anchor="middle" x="207.54" y="-667.11" font-family="Times,serif" font-size="14.00" fill="#000000">Boutique ENSEEIHT</text>
</g>
<!-- ASTRE&#45;&#45;Boutique ENSEEIHT -->
<g id="edge34" class="edge">
<title>ASTRE&#45;&#45;Boutique ENSEEIHT</title>
<path fill="none" stroke="black" d="M353.87,-715.28C330.32,-708.28 297.91,-698.65 269.56,-690.22"/>
<text text-anchor="middle" x="302.34" y="-706.7" font-family="Times,serif" font-size="14.00">lyt</text>
</g>
<!-- Classic7 -->
<g id="node24" class="node">
<title>Classic7</title>
<polygon fill="#ffffff" stroke="black" points="279.12,-854.74 203.87,-854.74 203.87,-818.74 279.12,-818.74 279.12,-854.74"/>
<text text-anchor="middle" x="241.49" y="-832.07" font-family="Times,serif" font-size="14.00" fill="#000000">Classic7</text>
</g>
<!-- ASTRE&#45;&#45;Classic7 -->
<g id="edge35" class="edge">
<title>ASTRE&#45;&#45;Classic7</title>
<path fill="none" stroke="black" d="M362.75,-743.49C335.84,-764.19 292.44,-797.57 265.51,-818.27"/>
<text text-anchor="middle" x="304.76" y="-784.83" font-family="Times,serif" font-size="14.00">lyt</text>
</g>
<!-- Bureau Des Arts -->
<g id="node18" class="node">
<title>Bureau Des Arts</title>
<polygon fill="#ffffff" stroke="black" points="1527.61,-542.9 1393.86,-542.9 1393.86,-506.9 1527.61,-506.9 1527.61,-542.9"/>
<text text-anchor="middle" x="1460.73" y="-520.23" font-family="Times,serif" font-size="14.00" fill="#000000">Bureau Des Arts</text>
</g>
<!-- Acte7&#45;&#45;Bureau Des Arts -->
<g id="edge36" class="edge">
<title>Acte7&#45;&#45;Bureau Des Arts</title>
<path fill="none" stroke="black" d="M1543.8,-387.49C1525.66,-417.49 1490.03,-476.44 1471.9,-506.43"/>
<text text-anchor="middle" x="1468.85" y="-450.91" font-family="Times,serif" font-size="14.00">bourgeoisc</text>
</g>
<!-- Acte7&#45;&#45;Slack7 -->
<g id="edge37" class="edge">
<title>Acte7&#45;&#45;Slack7</title>
<path fill="none" stroke="black" d="M1526.3,-358.69C1509.82,-352.78 1489.09,-345.34 1472.1,-339.24"/>
<text text-anchor="middle" x="1460.2" y="-352.91" font-family="Times,serif" font-size="14.00">bourgeoisc</text>
</g>
<!-- Boutique ENSEEIHT&#45;&#45;Classic7 -->
<g id="edge39" class="edge">
<title>Boutique ENSEEIHT&#45;&#45;Classic7</title>
<path fill="none" stroke="black" d="M211.3,-690.07C217.83,-721.78 231.18,-786.61 237.71,-818.38"/>
<text text-anchor="middle" x="215.13" y="-758.17" font-family="Times,serif" font-size="14.00">lyt</text>
</g>
<!-- Nebula -->
<g id="node42" class="node">
<title>Nebula</title>
<polygon fill="#bd234b" stroke="black" points="67,-628.69 0,-628.69 0,-592.69 67,-592.69 67,-628.69"/>
<text text-anchor="middle" x="33.5" y="-606.01" font-family="Times,serif" font-size="14.00" fill="#ffffff">Nebula</text>
</g>
<!-- Boutique ENSEEIHT&#45;&#45;Nebula -->
<g id="edge38" class="edge">
<title>Boutique ENSEEIHT&#45;&#45;Nebula</title>
<path fill="none" stroke="black" d="M154.85,-653.29C126.44,-643.31 92.21,-631.3 67.36,-622.57"/>
<text text-anchor="middle" x="83.35" y="-641.88" font-family="Times,serif" font-size="14.00">bardete</text>
</g>
<!-- Brew 7&#45;&#45;Club&#39;Zik -->
<g id="edge43" class="edge">
<title>Brew 7&#45;&#45;Club&#39;Zik</title>
<path fill="none" stroke="black" d="M937.23,-505.43C953.48,-502.81 972.98,-499.66 989.7,-496.97"/>
<text text-anchor="middle" x="939.65" y="-487.9" font-family="Times,serif" font-size="14.00">bongiovannia</text>
</g>
<!-- Brew 7&#45;&#45;Mind7 -->
<g id="edge44" class="edge">
<title>Brew 7&#45;&#45;Mind7</title>
<path fill="none" stroke="black" d="M919.71,-492.6C945.45,-463.96 994.97,-408.83 1020.79,-380.09"/>
<text text-anchor="middle" x="1017.87" y="-423.05" font-family="Times,serif" font-size="14.00">bongiovannia</text>
</g>
<!-- Brew 7&#45;&#45;N7 et Mat -->
<g id="edge40" class="edge">
<title>Brew 7&#45;&#45;N7 et Mat</title>
<path fill="none" stroke="black" d="M884.52,-529.34C857.06,-556.37 806.15,-606.46 778.68,-633.49"/>
<text text-anchor="middle" x="800.1" y="-568.12" font-family="Times,serif" font-size="14.00">lenulzecl</text>
</g>
<!-- Brew 7&#45;&#45;Terroir7 -->
<g id="edge42" class="edge">
<title>Brew 7&#45;&#45;Terroir7</title>
<path fill="none" stroke="black" d="M912.02,-529.19C923.84,-553.87 944.78,-597.59 956.58,-622.23"/>
<text text-anchor="middle" x="965.8" y="-579.66" font-family="Times,serif" font-size="14.00">lenulzecl</text>
</g>
<!-- Tire7boule -->
<g id="node49" class="node">
<title>Tire7boule</title>
<polygon fill="#ffffff" stroke="black" points="830.33,-531.86 737.83,-531.86 737.83,-495.86 830.33,-495.86 830.33,-531.86"/>
<text text-anchor="middle" x="784.08" y="-509.18" font-family="Times,serif" font-size="14.00" fill="#000000">Tire7boule</text>
</g>
<!-- Brew 7&#45;&#45;Tire7boule -->
<g id="edge41" class="edge">
<title>Brew 7&#45;&#45;Tire7boule</title>
<path fill="none" stroke="black" d="M869.43,-511.75C857.32,-512.05 843.45,-512.39 830.46,-512.71"/>
<text text-anchor="middle" x="849.94" y="-498.93" font-family="Times,serif" font-size="14.00">lenulzecl</text>
</g>
<!-- Bureau Des Arts&#45;&#45;Slack7 -->
<g id="edge45" class="edge">
<title>Bureau Des Arts&#45;&#45;Slack7</title>
<path fill="none" stroke="black" d="M1458.83,-506.71C1454.92,-469.25 1446,-383.87 1442.07,-346.2"/>
<text text-anchor="middle" x="1411.45" y="-430.41" font-family="Times,serif" font-size="14.00">bourgeoisc</text>
</g>
<!-- Bureau Des Arts&#45;&#45;TVn7 -->
<g id="edge46" class="edge">
<title>Bureau Des Arts&#45;&#45;TVn7</title>
<path fill="none" stroke="black" d="M1442.52,-543.26C1411.34,-574.69 1348.11,-638.44 1317.15,-669.66"/>
<text text-anchor="middle" x="1339.71" y="-610.41" font-family="Times,serif" font-size="14.00">grasnuzzos</text>
</g>
<!-- HumaN7 -->
<g id="node32" class="node">
<title>HumaN7</title>
<polygon fill="#ffffff" stroke="black" points="1706.26,-36 1626.51,-36 1626.51,0 1706.26,0 1706.26,-36"/>
<text text-anchor="middle" x="1666.38" y="-13.32" font-family="Times,serif" font-size="14.00" fill="#000000">HumaN7</text>
</g>
<!-- Bureau Des Sports&#45;&#45;HumaN7 -->
<g id="edge47" class="edge">
<title>Bureau Des Sports&#45;&#45;HumaN7</title>
<path fill="none" stroke="black" d="M1555.97,-135.16C1580.33,-109.31 1624.61,-62.33 1649.04,-36.41"/>
<text text-anchor="middle" x="1575.5" y="-89.73" font-family="Times,serif" font-size="14.00">douetm</text>
</g>
<!-- Bureau Des Sports&#45;&#45;Slack7 -->
<g id="edge48" class="edge">
<title>Bureau Des Sports&#45;&#45;Slack7</title>
<path fill="none" stroke="black" d="M1528.39,-171.75C1509.45,-205.24 1469.47,-275.93 1450.52,-309.42"/>
<text text-anchor="middle" x="1466.58" y="-244.54" font-family="Times,serif" font-size="14.00">fagotn</text>
</g>
<!-- CAn7 -->
<g id="node22" class="node">
<title>CAn7</title>
<polygon fill="#ffffff" stroke="black" points="1160.43,-837.35 1106.18,-837.35 1106.18,-801.35 1160.43,-801.35 1160.43,-837.35"/>
<text text-anchor="middle" x="1133.31" y="-814.68" font-family="Times,serif" font-size="14.00" fill="#000000">CAn7</text>
</g>
<!-- Bureau Des Éleves&#45;&#45;CAn7 -->
<g id="edge51" class="edge">
<title>Bureau Des Éleves&#45;&#45;CAn7</title>
<path fill="none" stroke="black" d="M1102.83,-700.04C1109.55,-726.35 1121.89,-774.65 1128.62,-801.01"/>
<text text-anchor="middle" x="1086.85" y="-754.47" font-family="Times,serif" font-size="14.00">combetf</text>
</g>
<!-- Bureau Des Éleves&#45;&#45;Club&#39;Zik -->
<g id="edge52" class="edge">
<title>Bureau Des Éleves&#45;&#45;Club&#39;Zik</title>
<path fill="none" stroke="black" d="M1091.39,-663.46C1077.9,-626.97 1047.79,-545.55 1034.32,-509.11"/>
<text text-anchor="middle" x="1032.85" y="-590.23" font-family="Times,serif" font-size="14.00">ringoota</text>
</g>
<!-- Bureau Des Éleves&#45;&#45;Terroir7 -->
<g id="edge49" class="edge">
<title>Bureau Des Éleves&#45;&#45;Terroir7</title>
<path fill="none" stroke="black" d="M1038.72,-663.27C1026.56,-659.48 1014.08,-655.6 1002.94,-652.13"/>
<text text-anchor="middle" x="963.45" y="-661.65" font-family="Times,serif" font-size="14.00">arbonap, baillye</text>
</g>
<!-- Association des Étudiants -->
<g id="node54" class="node">
<title>Association des Étudiants</title>
<ellipse fill="none" stroke="black" cx="911.93" cy="-819.29" rx="140.65" ry="18"/>
<text text-anchor="middle" x="911.93" y="-814.61" font-family="Times,serif" font-size="14.00">Association des Étudiants</text>
</g>
<!-- Bureau Des Éleves&#45;&#45;Association des Étudiants -->
<g id="edge50" class="edge">
<title>Bureau Des Éleves&#45;&#45;Association des Étudiants</title>
<path fill="none" stroke="black" d="M1073.43,-700.03C1037.71,-726.4 972.07,-774.87 936.46,-801.17"/>
<text text-anchor="middle" x="981.32" y="-754.55" font-family="Times,serif" font-size="14.00">baillye</text>
</g>
<!-- Bureau du Développement Durable -->
<g id="node21" class="node">
<title>Bureau du Développement Durable</title>
<polygon fill="#22ad1c" stroke="black" points="777.9,-395 509.9,-395 509.9,-359 777.9,-359 777.9,-395"/>
<text text-anchor="middle" x="643.9" y="-372.32" font-family="Times,serif" font-size="14.00" fill="#ffffff">Bureau du Développement Durable</text>
</g>
<!-- Bureau du Développement Durable&#45;&#45;Tire7boule -->
<g id="edge53" class="edge">
<title>Bureau du Développement Durable&#45;&#45;Tire7boule</title>
<path fill="none" stroke="black" d="M662.8,-395.46C689.71,-421.72 738.74,-469.59 765.48,-495.69"/>
<text text-anchor="middle" x="687.51" y="-449.52" font-family="Times,serif" font-size="14.00">veniatg</text>
</g>
<!-- CAn7&#45;&#45;Fromage7 -->
<g id="edge54" class="edge">
<title>CAn7&#45;&#45;Fromage7</title>
<path fill="none" stroke="black" d="M1160.9,-832.1C1192.49,-846.69 1244.51,-870.72 1280.49,-887.34"/>
<text text-anchor="middle" x="1186.19" y="-863.67" font-family="Times,serif" font-size="14.00">barilleree</text>
</g>
<!-- CAn7&#45;&#45;Terroir7 -->
<g id="edge55" class="edge">
<title>CAn7&#45;&#45;Terroir7</title>
<path fill="none" stroke="black" d="M1115.96,-800.88C1083.68,-766.5 1014.75,-693.09 982.54,-658.79"/>
<text text-anchor="middle" x="1010.25" y="-733.78" font-family="Times,serif" font-size="14.00">majercsikg</text>
</g>
<!-- Cartel&#45;&#45;Fromage7 -->
<g id="edge58" class="edge">
<title>Cartel&#45;&#45;Fromage7</title>
<path fill="none" stroke="black" d="M1380.3,-1103.61C1367.9,-1062.74 1338.25,-964.95 1325.87,-924.12"/>
<text text-anchor="middle" x="1317.08" y="-1000.57" font-family="Times,serif" font-size="14.00">gutierrezt</text>
</g>
<!-- Ingénieur·es Engagé·es N7 -->
<g id="node34" class="node">
<title>Ingénieur·es Engagé·es N7</title>
<polygon fill="#ffffff" stroke="black" points="1429.89,-1321.52 1220.39,-1321.52 1220.39,-1285.52 1429.89,-1285.52 1429.89,-1321.52"/>
<text text-anchor="middle" x="1325.14" y="-1298.84" font-family="Times,serif" font-size="14.00" fill="#000000">Ingénieur·es Engagé·es N7</text>
</g>
<!-- Cartel&#45;&#45;Ingénieur·es Engagé·es N7 -->
<g id="edge59" class="edge">
<title>Cartel&#45;&#45;Ingénieur·es Engagé·es N7</title>
<path fill="none" stroke="black" d="M1379.73,-1140.46C1368.09,-1175.24 1342.97,-1250.26 1331.31,-1285.07"/>
<text text-anchor="middle" x="1328.9" y="-1199.46" font-family="Times,serif" font-size="14.00">mifdala</text>
</g>
<!-- Japan7 -->
<g id="node35" class="node">
<title>Japan7</title>
<polygon fill="#ffffff" stroke="black" points="1312.45,-1143.24 1247.7,-1143.24 1247.7,-1107.24 1312.45,-1107.24 1312.45,-1143.24"/>
<text text-anchor="middle" x="1280.07" y="-1120.57" font-family="Times,serif" font-size="14.00" fill="#000000">Japan7</text>
</g>
<!-- Cartel&#45;&#45;Japan7 -->
<g id="edge57" class="edge">
<title>Cartel&#45;&#45;Japan7</title>
<path fill="none" stroke="black" d="M1355.28,-1122.98C1341.98,-1123.38 1326.37,-1123.85 1312.83,-1124.26"/>
<text text-anchor="middle" x="1389.93" y="-1127.57" font-family="Times,serif" font-size="14.00">mifdala, olivierl</text>
</g>
<!-- Cartel&#45;&#45;Magic7 -->
<g id="edge56" class="edge">
<title>Cartel&#45;&#45;Magic7</title>
<path fill="none" stroke="black" d="M1386.61,-1103.76C1387.28,-1086.96 1388.25,-1062.19 1388.92,-1045.4"/>
<text text-anchor="middle" x="1485.26" y="-1061.28" font-family="Times,serif" font-size="14.00">rottiern, gutierrezt, olivierl</text>
</g>
<!-- Club&#39;Zik&#45;&#45;Mind7 -->
<g id="edge60" class="edge">
<title>Club&#39;Zik&#45;&#45;Mind7</title>
<path fill="none" stroke="black" d="M1028.95,-472.62C1030.82,-447.99 1034.13,-404.37 1036,-379.79"/>
<text text-anchor="middle" x="1080.1" y="-412.9" font-family="Times,serif" font-size="14.00">bongiovannia</text>
</g>
<!-- Crypto7 -->
<g id="node26" class="node">
<title>Crypto7</title>
<polygon fill="#ffffa7" stroke="black" points="1648.75,-677.07 1575,-677.07 1575,-641.07 1648.75,-641.07 1648.75,-677.07"/>
<text text-anchor="middle" x="1611.88" y="-654.4" font-family="Times,serif" font-size="14.00" fill="#000000">Crypto7</text>
</g>
<!-- n7beats -->
<g id="node51" class="node">
<title>n7beats</title>
<polygon fill="#32398e" stroke="black" points="1923.29,-636 1850.29,-636 1850.29,-600 1923.29,-600 1923.29,-636"/>
<text text-anchor="middle" x="1886.79" y="-613.33" font-family="Times,serif" font-size="14.00" fill="#ffffff">n7beats</text>
</g>
<!-- Crypto7&#45;&#45;n7beats -->
<g id="edge61" class="edge">
<title>Crypto7&#45;&#45;n7beats</title>
<path fill="none" stroke="black" d="M1649.24,-653.49C1701.94,-645.62 1797.53,-631.34 1849.95,-623.5"/>
<text text-anchor="middle" x="1723.35" y="-642.45" font-family="Times,serif" font-size="14.00">trotelal</text>
</g>
<!-- Escape7&#45;&#45;N7 et Mat -->
<g id="edge62" class="edge">
<title>Escape7&#45;&#45;N7 et Mat</title>
<path fill="none" stroke="black" d="M831.02,-650.29C822.52,-650.49 813.44,-650.7 804.71,-650.9"/>
<text text-anchor="middle" x="817.86" y="-637.29" font-family="Times,serif" font-size="14.00">martinn1</text>
</g>
<!-- Foyer&#45;&#45;Terroir7 -->
<g id="edge64" class="edge">
<title>Foyer&#45;&#45;Terroir7</title>
<path fill="none" stroke="black" d="M934.39,-444.7C940.76,-485.02 955.96,-581.36 962.37,-621.92"/>
<text text-anchor="middle" x="972" y="-520.01" font-family="Times,serif" font-size="14.00">valletc</text>
</g>
<!-- Foyer&#45;&#45;Tire7boule -->
<g id="edge63" class="edge">
<title>Foyer&#45;&#45;Tire7boule</title>
<path fill="none" stroke="black" d="M903.09,-443.31C877.9,-458.24 841.2,-480 815.22,-495.4"/>
<text text-anchor="middle" x="823.53" y="-473.3" font-family="Times,serif" font-size="14.00">rajaonahb</text>
</g>
<!-- Game7 -->
<g id="node30" class="node">
<title>Game7</title>
<polygon fill="#ffffff" stroke="black" points="1591.69,-870.02 1525.44,-870.02 1525.44,-834.02 1591.69,-834.02 1591.69,-870.02"/>
<text text-anchor="middle" x="1558.57" y="-847.34" font-family="Times,serif" font-size="14.00" fill="#000000">Game7</text>
</g>
<!-- Fromage7&#45;&#45;Game7 -->
<g id="edge67" class="edge">
<title>Fromage7&#45;&#45;Game7</title>
<path fill="none" stroke="black" d="M1365.11,-895.62C1411.62,-885.14 1483.29,-868.98 1525.09,-859.56"/>
<text text-anchor="middle" x="1421.1" y="-881.54" font-family="Times,serif" font-size="14.00">soyerb</text>
</g>
<!-- Fromage7&#45;&#45;Japan7 -->
<g id="edge70" class="edge">
<title>Fromage7&#45;&#45;Japan7</title>
<path fill="none" stroke="black" d="M1316.93,-924.06C1309.36,-965.38 1291.04,-1065.39 1283.45,-1106.8"/>
<text text-anchor="middle" x="1266.44" y="-1019.38" font-family="Times,serif" font-size="14.00">elomarim</text>
</g>
<!-- Les Trous Balourds -->
<g id="node37" class="node">
<title>Les Trous Balourds</title>
<polygon fill="#ffffff" stroke="black" points="1227.58,-1100.36 1073.58,-1100.36 1073.58,-1064.36 1227.58,-1064.36 1227.58,-1100.36"/>
<text text-anchor="middle" x="1150.58" y="-1077.69" font-family="Times,serif" font-size="14.00" fill="#000000">Les Trous Balourds</text>
</g>
<!-- Fromage7&#45;&#45;Les Trous Balourds -->
<g id="edge69" class="edge">
<title>Fromage7&#45;&#45;Les Trous Balourds</title>
<path fill="none" stroke="black" d="M1302.77,-923.96C1270.25,-957.81 1200.9,-1029.99 1168.26,-1063.96"/>
<text text-anchor="middle" x="1201.76" y="-980.66" font-family="Times,serif" font-size="14.00">elomarim</text>
</g>
<!-- Fromage7&#45;&#45;Magic7 -->
<g id="edge71" class="edge">
<title>Fromage7&#45;&#45;Magic7</title>
<path fill="none" stroke="black" d="M1330.83,-924.17C1343.93,-947.12 1366.18,-986.09 1379.23,-1008.94"/>
<text text-anchor="middle" x="1319.03" y="-953.25" font-family="Times,serif" font-size="14.00">gutierrezt</text>
</g>
<!-- Photo7 -->
<g id="node43" class="node">
<title>Photo7</title>
<polygon fill="#ffffff" stroke="black" points="1251.16,-1037.75 1184.91,-1037.75 1184.91,-1001.75 1251.16,-1001.75 1251.16,-1037.75"/>
<text text-anchor="middle" x="1218.04" y="-1015.08" font-family="Times,serif" font-size="14.00" fill="#000000">Photo7</text>
</g>
<!-- Fromage7&#45;&#45;Photo7 -->
<g id="edge68" class="edge">
<title>Fromage7&#45;&#45;Photo7</title>
<path fill="none" stroke="black" d="M1303.86,-924.05C1284.78,-945.32 1253.49,-980.22 1234.42,-1001.48"/>
<text text-anchor="middle" x="1205.02" y="-949.46" font-family="Times,serif" font-size="14.00">ignazin, elomarim</text>
</g>
<!-- Fromage7&#45;&#45;TVn7 -->
<g id="edge72" class="edge">
<title>Fromage7&#45;&#45;TVn7</title>
<path fill="none" stroke="black" d="M1318.54,-887.51C1314.57,-846.47 1304.99,-747.15 1301.02,-706.01"/>
<text text-anchor="middle" x="1274.15" y="-800.71" font-family="Times,serif" font-size="14.00">boncourm</text>
</g>
<!-- net7 -->
<g id="node52" class="node">
<title>net7</title>
<polygon fill="#ffffff" stroke="black" points="1500.44,-929.1 1446.44,-929.1 1446.44,-893.1 1500.44,-893.1 1500.44,-929.1"/>
<text text-anchor="middle" x="1473.44" y="-906.42" font-family="Times,serif" font-size="14.00" fill="#000000">net7</text>
</g>
<!-- Fromage7&#45;&#45;net7 -->
<g id="edge65" class="edge">
<title>Fromage7&#45;&#45;net7</title>
<path fill="none" stroke="black" d="M1365,-907.29C1391.31,-908.22 1423.73,-909.35 1446.24,-910.14"/>
<text text-anchor="middle" x="1473.12" y="-912.67" font-family="Times,serif" font-size="14.00">soyerb, dreumonte</text>
</g>
<!-- INP&#45;net -->
<g id="node55" class="node">
<title>INP&#45;net</title>
<ellipse fill="none" stroke="black" cx="1461.67" cy="-796" rx="49.1" ry="18"/>
<text text-anchor="middle" x="1461.67" y="-791.32" font-family="Times,serif" font-size="14.00">INP&#45;net</text>
</g>
<!-- Fromage7&#45;&#45;INP&#45;net -->
<g id="edge66" class="edge">
<title>Fromage7&#45;&#45;INP&#45;net</title>
<path fill="none" stroke="black" d="M1343.96,-887.36C1370.84,-866.49 1414.33,-832.74 1440.25,-812.62"/>
<text text-anchor="middle" x="1324.6" y="-853.94" font-family="Times,serif" font-size="14.00">soyerb, dreumonte</text>
</g>
<!-- Game7&#45;&#45;net7 -->
<g id="edge73" class="edge">
<title>Game7&#45;&#45;net7</title>
<path fill="none" stroke="black" d="M1532.1,-870.38C1521.85,-877.5 1510.14,-885.63 1499.89,-892.74"/>
<text text-anchor="middle" x="1492" y="-868.26" font-family="Times,serif" font-size="14.00">soyerb</text>
</g>
<!-- Game7&#45;&#45;INP&#45;net -->
<g id="edge74" class="edge">
<title>Game7&#45;&#45;INP&#45;net</title>
<path fill="none" stroke="black" d="M1526.57,-833.52C1514.22,-826.38 1500.26,-818.3 1488.45,-811.48"/>
<text text-anchor="middle" x="1483.51" y="-826.45" font-family="Times,serif" font-size="14.00">soyerb</text>
</g>
<!-- Genius7&#45;&#45;Mind7 -->
<g id="edge75" class="edge">
<title>Genius7&#45;&#45;Mind7</title>
<path fill="none" stroke="black" d="M1000.74,-189.27C1008.48,-225.71 1025.76,-307.02 1033.5,-343.42"/>
<text text-anchor="middle" x="996.12" y="-270.29" font-family="Times,serif" font-size="14.00">yeoue</text>
</g>
<!-- Hydro -->
<g id="node33" class="node">
<title>Hydro</title>
<polygon fill="#ffffff" stroke="black" points="1238.17,-61.24 1177.92,-61.24 1177.92,-25.24 1238.17,-25.24 1238.17,-61.24"/>
<text text-anchor="middle" x="1208.05" y="-38.57" font-family="Times,serif" font-size="14.00" fill="#000000">Hydro</text>
</g>
<!-- Hydro&#45;&#45;Pompom -->
<g id="edge76" class="edge">
<title>Hydro&#45;&#45;Pompom</title>
<path fill="none" stroke="black" d="M1211.02,-61.43C1218.33,-106.26 1237.16,-221.72 1244.51,-266.78"/>
<text text-anchor="middle" x="1185.39" y="-150.8" font-family="Times,serif" font-size="14.00">meauzoonel</text>
</g>
<!-- Ingénieur·es Engagé·es N7&#45;&#45;Japan7 -->
<g id="edge78" class="edge">
<title>Ingénieur·es Engagé·es N7&#45;&#45;Japan7</title>
<path fill="none" stroke="black" d="M1320.48,-1285.11C1311.83,-1250.86 1293.34,-1177.73 1284.7,-1143.55"/>
<text text-anchor="middle" x="1275.97" y="-1218.28" font-family="Times,serif" font-size="14.00">mifdala</text>
</g>
<!-- N7 Consulting -->
<g id="node40" class="node">
<title>N7 Consulting</title>
<polygon fill="#ffffff" stroke="black" points="1393.67,-1505.43 1274.92,-1505.43 1274.92,-1469.43 1393.67,-1469.43 1393.67,-1505.43"/>
<text text-anchor="middle" x="1334.29" y="-1482.76" font-family="Times,serif" font-size="14.00" fill="#000000">N7 Consulting</text>
</g>
<!-- Ingénieur·es Engagé·es N7&#45;&#45;N7 Consulting -->
<g id="edge77" class="edge">
<title>Ingénieur·es Engagé·es N7&#45;&#45;N7 Consulting</title>
<path fill="none" stroke="black" d="M1326.05,-1321.83C1327.8,-1357.08 1331.63,-1434.01 1333.38,-1469.2"/>
<text text-anchor="middle" x="1297.09" y="-1399.46" font-family="Times,serif" font-size="14.00">lebeaudd</text>
</g>
<!-- Japan7&#45;&#45;Les Trous Balourds -->
<g id="edge80" class="edge">
<title>Japan7&#45;&#45;Les Trous Balourds</title>
<path fill="none" stroke="black" d="M1247.4,-1114.42C1234.96,-1110.3 1220.41,-1105.49 1206.42,-1100.86"/>
<text text-anchor="middle" x="1193.16" y="-1111.59" font-family="Times,serif" font-size="14.00">elomarim</text>
</g>
<!-- Japan7&#45;&#45;Magic7 -->
<g id="edge79" class="edge">
<title>Japan7&#45;&#45;Magic7</title>
<path fill="none" stroke="black" d="M1300.68,-1106.79C1320.27,-1089.26 1349.56,-1063.03 1369.12,-1045.52"/>
<text text-anchor="middle" x="1310.15" y="-1062.86" font-family="Times,serif" font-size="14.00">olivierl</text>
</g>
<!-- Japan7&#45;&#45;Photo7 -->
<g id="edge81" class="edge">
<title>Japan7&#45;&#45;Photo7</title>
<path fill="none" stroke="black" d="M1269.27,-1106.87C1257.88,-1087.51 1240.06,-1057.2 1228.72,-1037.92"/>
<text text-anchor="middle" x="1248.99" y="-1059.09" font-family="Times,serif" font-size="14.00">elomarim</text>
</g>
<!-- Les Trous Balourds&#45;&#45;Photo7 -->
<g id="edge82" class="edge">
<title>Les Trous Balourds&#45;&#45;Photo7</title>
<path fill="none" stroke="black" d="M1170.45,-1063.92C1179.31,-1055.69 1189.72,-1046.03 1198.54,-1037.85"/>
<text text-anchor="middle" x="1150.74" y="-1037.58" font-family="Times,serif" font-size="14.00">elomarim</text>
</g>
<!-- N7 et Mat&#45;&#45;Terroir7 -->
<g id="edge84" class="edge">
<title>N7 et Mat&#45;&#45;Terroir7</title>
<path fill="none" stroke="black" d="M804.75,-649.42C841.57,-647.35 893.13,-644.46 927.79,-642.52"/>
<text text-anchor="middle" x="882.02" y="-632.67" font-family="Times,serif" font-size="14.00">lenulzecl</text>
</g>
<!-- N7 et Mat&#45;&#45;Tire7boule -->
<g id="edge83" class="edge">
<title>N7 et Mat&#45;&#45;Tire7boule</title>
<path fill="none" stroke="black" d="M763.14,-633.6C767.76,-607.19 776.24,-558.72 780.86,-532.27"/>
<text text-anchor="middle" x="740.5" y="-586.88" font-family="Times,serif" font-size="14.00">lenulzecl</text>
</g>
<!-- Pompom&#45;&#45;Slack7 -->
<g id="edge85" class="edge">
<title>Pompom&#45;&#45;Slack7</title>
<path fill="none" stroke="black" d="M1286.49,-293.79C1322.33,-301.72 1374.82,-313.32 1408.23,-320.71"/>
<text text-anchor="middle" x="1320.74" y="-311.2" font-family="Times,serif" font-size="14.00">choisyv</text>
</g>
<!-- Rock&#39;n7 -->
<g id="node45" class="node">
<title>Rock&#39;n7</title>
<polygon fill="#ffffff" stroke="black" points="522.25,-1129.32 450,-1129.32 450,-1093.32 522.25,-1093.32 522.25,-1129.32"/>
<text text-anchor="middle" x="486.13" y="-1106.65" font-family="Times,serif" font-size="14.00" fill="#000000">Rock&#39;n7</text>
</g>
<!-- Gr&#39;INP -->
<g id="node56" class="node">
<title>Gr&#39;INP</title>
<ellipse fill="none" stroke="black" cx="776.08" cy="-1068" rx="45.42" ry="18"/>
<text text-anchor="middle" x="776.08" y="-1063.33" font-family="Times,serif" font-size="14.00">Gr&#39;INP</text>
</g>
<!-- Rock&#39;n7&#45;&#45;Gr&#39;INP -->
<g id="edge86" class="edge">
<title>Rock&#39;n7&#45;&#45;Gr&#39;INP</title>
<path fill="none" stroke="black" d="M522.55,-1105.88C576.25,-1097.86 676.42,-1082.89 733.45,-1074.37"/>
<text text-anchor="middle" x="598.75" y="-1094.07" font-family="Times,serif" font-size="14.00">canillacl</text>
</g>
<!-- Terroir7&#45;&#45;Tire7boule -->
<g id="edge87" class="edge">
<title>Terroir7&#45;&#45;Tire7boule</title>
<path fill="none" stroke="black" d="M938.94,-622.01C904.58,-598.02 844.83,-556.29 810.46,-532.28"/>
<text text-anchor="middle" x="906.2" y="-581.1" font-family="Times,serif" font-size="14.00">lenulzecl</text>
</g>
<!-- Terroir7&#45;&#45;Association des Étudiants -->
<g id="edge88" class="edge">
<title>Terroir7&#45;&#45;Association des Étudiants</title>
<path fill="none" stroke="black" d="M959.78,-658.88C949.53,-693.25 927.64,-766.63 917.41,-800.92"/>
<text text-anchor="middle" x="914.97" y="-716.6" font-family="Times,serif" font-size="14.00">baillye</text>
</g>
<!-- WEI -->
<g id="node50" class="node">
<title>WEI</title>
<polygon fill="#ffffff" stroke="black" points="429,-306.89 375,-306.89 375,-270.89 429,-270.89 429,-306.89"/>
<text text-anchor="middle" x="402" y="-284.21" font-family="Times,serif" font-size="14.00" fill="#000000">WEI</text>
</g>
<!-- plaquette&#45;alpha -->
<g id="node53" class="node">
<title>plaquette&#45;alpha</title>
<polygon fill="#ffffff" stroke="black" points="773,-261 645.25,-261 645.25,-225 773,-225 773,-261"/>
<text text-anchor="middle" x="709.13" y="-238.32" font-family="Times,serif" font-size="14.00" fill="#000000">plaquette&#45;alpha</text>
</g>
<!-- WEI&#45;&#45;plaquette&#45;alpha -->
<g id="edge89" class="edge">
<title>WEI&#45;&#45;plaquette&#45;alpha</title>
<path fill="none" stroke="black" d="M429.26,-284.81C477.34,-277.63 578.42,-262.53 645.02,-252.58"/>
<text text-anchor="middle" x="509.01" y="-272.65" font-family="Times,serif" font-size="14.00">litschan</text>
</g>
<!-- net7&#45;&#45;INP&#45;net -->
<g id="edge90" class="edge">
<title>net7&#45;&#45;INP&#45;net</title>
<path fill="none" stroke="black" d="M1471.55,-892.6C1469.36,-871.12 1465.75,-835.9 1463.56,-814.44"/>
<text text-anchor="middle" x="1287.55" y="-840.22" font-family="Times,serif" font-size="14.00">dreumonte, truongn, dissoubraya, soyerb, ragotc1</text>
</g>
</g>
</svg>
